solid OpenSCAD_Model
  facet normal -1 0 0
    outer loop
      vertex -5 -5 0
      vertex -5 10 9
      vertex -5 10 0
    endloop
  endfacet
  facet normal -1 -0 0
    outer loop
      vertex -5 10 9
      vertex -5 -5 0
      vertex -5 -5 9
    endloop
  endfacet
  facet normal 0 0 1
    outer loop
      vertex 169.9 10 9
      vertex 162.9 4 9
      vertex 169.9 -5 9
    endloop
  endfacet
  facet normal 0 0 1
    outer loop
      vertex 169.9 10 9
      vertex 162.748 4.76537 9
      vertex 162.9 4 9
    endloop
  endfacet
  facet normal 0 0 1
    outer loop
      vertex 169.9 10 9
      vertex 162.314 5.41421 9
      vertex 162.748 4.76537 9
    endloop
  endfacet
  facet normal 0 0 1
    outer loop
      vertex 169.9 10 9
      vertex 161.665 5.84776 9
      vertex 162.314 5.41421 9
    endloop
  endfacet
  facet normal 0 0 1
    outer loop
      vertex 169.9 10 9
      vertex 160.9 6 9
      vertex 161.665 5.84776 9
    endloop
  endfacet
  facet normal 0 0 1
    outer loop
      vertex 169.9 10 9
      vertex 160.135 5.84776 9
      vertex 160.9 6 9
    endloop
  endfacet
  facet normal 0 0 1
    outer loop
      vertex 159.052 4.76537 9
      vertex 6 4 9
      vertex 158.9 4 9
    endloop
  endfacet
  facet normal 0 0 1
    outer loop
      vertex 5.84776 4.76537 9
      vertex 159.052 4.76537 9
      vertex 159.486 5.41421 9
    endloop
  endfacet
  facet normal 0 0 1
    outer loop
      vertex 5.41421 5.41421 9
      vertex 159.486 5.41421 9
      vertex 160.135 5.84776 9
    endloop
  endfacet
  facet normal 0 0 1
    outer loop
      vertex 4.76537 5.84776 9
      vertex 160.135 5.84776 9
      vertex 169.9 10 9
    endloop
  endfacet
  facet normal 0 0 1
    outer loop
      vertex 159.052 4.76537 9
      vertex 5.84776 4.76537 9
      vertex 6 4 9
    endloop
  endfacet
  facet normal 0 0 1
    outer loop
      vertex 159.486 5.41421 9
      vertex 5.41421 5.41421 9
      vertex 5.84776 4.76537 9
    endloop
  endfacet
  facet normal 0 0 1
    outer loop
      vertex 160.135 5.84776 9
      vertex 4.76537 5.84776 9
      vertex 5.41421 5.41421 9
    endloop
  endfacet
  facet normal -0 0 1
    outer loop
      vertex -5 10 9
      vertex 4.76537 5.84776 9
      vertex 169.9 10 9
    endloop
  endfacet
  facet normal 0 0 1
    outer loop
      vertex 2.15224 4.76537 9
      vertex -5 10 9
      vertex 2 4 9
    endloop
  endfacet
  facet normal 0 0 1
    outer loop
      vertex 2.58579 5.41421 9
      vertex -5 10 9
      vertex 2.15224 4.76537 9
    endloop
  endfacet
  facet normal 0 0 1
    outer loop
      vertex 3.23463 5.84776 9
      vertex -5 10 9
      vertex 2.58579 5.41421 9
    endloop
  endfacet
  facet normal 0 0 1
    outer loop
      vertex 4 6 9
      vertex -5 10 9
      vertex 3.23463 5.84776 9
    endloop
  endfacet
  facet normal 0 0 1
    outer loop
      vertex 4.76537 5.84776 9
      vertex -5 10 9
      vertex 4 6 9
    endloop
  endfacet
  facet normal -0 0 1
    outer loop
      vertex 162.748 3.23463 9
      vertex 169.9 -5 9
      vertex 162.9 4 9
    endloop
  endfacet
  facet normal -0 0 1
    outer loop
      vertex 162.314 2.58579 9
      vertex 169.9 -5 9
      vertex 162.748 3.23463 9
    endloop
  endfacet
  facet normal -0 0 1
    outer loop
      vertex 161.665 2.15224 9
      vertex 169.9 -5 9
      vertex 162.314 2.58579 9
    endloop
  endfacet
  facet normal -0 0 1
    outer loop
      vertex 160.9 2 9
      vertex 169.9 -5 9
      vertex 161.665 2.15224 9
    endloop
  endfacet
  facet normal 0 0 1
    outer loop
      vertex 160.135 2.15224 9
      vertex 169.9 -5 9
      vertex 160.9 2 9
    endloop
  endfacet
  facet normal 0 0 1
    outer loop
      vertex 159.486 2.58579 9
      vertex 169.9 -5 9
      vertex 160.135 2.15224 9
    endloop
  endfacet
  facet normal -0 0 1
    outer loop
      vertex 6 4 9
      vertex 159.052 3.23463 9
      vertex 158.9 4 9
    endloop
  endfacet
  facet normal 0 0 1
    outer loop
      vertex 5.84776 3.23463 9
      vertex 159.052 3.23463 9
      vertex 6 4 9
    endloop
  endfacet
  facet normal 0 0 1
    outer loop
      vertex 159.052 3.23463 9
      vertex 5.84776 3.23463 9
      vertex 159.486 2.58579 9
    endloop
  endfacet
  facet normal 0 0 1
    outer loop
      vertex 5.41421 2.58579 9
      vertex 159.486 2.58579 9
      vertex 5.84776 3.23463 9
    endloop
  endfacet
  facet normal 0 0 1
    outer loop
      vertex 159.486 2.58579 9
      vertex 5.41421 2.58579 9
      vertex 169.9 -5 9
    endloop
  endfacet
  facet normal -0 0 1
    outer loop
      vertex 4.76537 2.15224 9
      vertex 169.9 -5 9
      vertex 5.41421 2.58579 9
    endloop
  endfacet
  facet normal 0 0 1
    outer loop
      vertex -5 -5 9
      vertex 4.76537 2.15224 9
      vertex 4 2 9
    endloop
  endfacet
  facet normal 0 0 1
    outer loop
      vertex -5 -5 9
      vertex 2 4 9
      vertex -5 10 9
    endloop
  endfacet
  facet normal 0 0 1
    outer loop
      vertex 2 4 9
      vertex -5 -5 9
      vertex 2.15224 3.23463 9
    endloop
  endfacet
  facet normal 0 0 1
    outer loop
      vertex 4.76537 2.15224 9
      vertex -5 -5 9
      vertex 169.9 -5 9
    endloop
  endfacet
  facet normal 0 0 1
    outer loop
      vertex 3.23463 2.15224 9
      vertex -5 -5 9
      vertex 4 2 9
    endloop
  endfacet
  facet normal 0 0 1
    outer loop
      vertex 2.58579 2.58579 9
      vertex -5 -5 9
      vertex 3.23463 2.15224 9
    endloop
  endfacet
  facet normal 0 0 1
    outer loop
      vertex 2.15224 3.23463 9
      vertex -5 -5 9
      vertex 2.58579 2.58579 9
    endloop
  endfacet
  facet normal 1 -0 0
    outer loop
      vertex 169.9 -5 9
      vertex 169.9 10 0
      vertex 169.9 10 9
    endloop
  endfacet
  facet normal 1 0 0
    outer loop
      vertex 169.9 10 0
      vertex 169.9 -5 9
      vertex 169.9 -5 0
    endloop
  endfacet
  facet normal 0 1 0
    outer loop
      vertex 169.9 10 9
      vertex 165.9 10 6
      vertex -5 10 9
    endloop
  endfacet
  facet normal 0 1 0
    outer loop
      vertex 169.9 10 9
      vertex 165.9 10 3
      vertex 165.9 10 6
    endloop
  endfacet
  facet normal 0 1 0
    outer loop
      vertex 165.9 10 3
      vertex 169.9 10 0
      vertex -1 10 3
    endloop
  endfacet
  facet normal 0 1 -0
    outer loop
      vertex 169.9 10 0
      vertex 165.9 10 3
      vertex 169.9 10 9
    endloop
  endfacet
  facet normal 0 1 -0
    outer loop
      vertex -1 10 6
      vertex -5 10 9
      vertex 165.9 10 6
    endloop
  endfacet
  facet normal 0 1 -0
    outer loop
      vertex -1 10 3
      vertex -5 10 9
      vertex -1 10 6
    endloop
  endfacet
  facet normal 0 1 0
    outer loop
      vertex -1 10 3
      vertex -5 10 0
      vertex -5 10 9
    endloop
  endfacet
  facet normal 0 1 0
    outer loop
      vertex -5 10 0
      vertex -1 10 3
      vertex 169.9 10 0
    endloop
  endfacet
  facet normal 0 0 -1
    outer loop
      vertex 169.9 -5 0
      vertex 162.9 4 0
      vertex 169.9 10 0
    endloop
  endfacet
  facet normal 0 0 -1
    outer loop
      vertex 169.9 -5 0
      vertex 162.748 3.23463 0
      vertex 162.9 4 0
    endloop
  endfacet
  facet normal 0 0 -1
    outer loop
      vertex 169.9 -5 0
      vertex 162.314 2.58579 0
      vertex 162.748 3.23463 0
    endloop
  endfacet
  facet normal 0 0 -1
    outer loop
      vertex 169.9 -5 0
      vertex 161.665 2.15224 0
      vertex 162.314 2.58579 0
    endloop
  endfacet
  facet normal 0 0 -1
    outer loop
      vertex 169.9 -5 0
      vertex 160.9 2 0
      vertex 161.665 2.15224 0
    endloop
  endfacet
  facet normal 0 0 -1
    outer loop
      vertex 169.9 -5 0
      vertex 160.135 2.15224 0
      vertex 160.9 2 0
    endloop
  endfacet
  facet normal 0 0 -1
    outer loop
      vertex 169.9 -5 0
      vertex 159.486 2.58579 0
      vertex 160.135 2.15224 0
    endloop
  endfacet
  facet normal 0 0 -1
    outer loop
      vertex 159.052 3.23463 0
      vertex 6 4 0
      vertex 158.9 4 0
    endloop
  endfacet
  facet normal 0 0 -1
    outer loop
      vertex 5.84776 3.23463 0
      vertex 159.052 3.23463 0
      vertex 159.486 2.58579 0
    endloop
  endfacet
  facet normal 0 0 -1
    outer loop
      vertex 5.41421 2.58579 0
      vertex 159.486 2.58579 0
      vertex 169.9 -5 0
    endloop
  endfacet
  facet normal 0 0 -1
    outer loop
      vertex 159.052 3.23463 0
      vertex 5.84776 3.23463 0
      vertex 6 4 0
    endloop
  endfacet
  facet normal 0 0 -1
    outer loop
      vertex 159.486 2.58579 0
      vertex 5.41421 2.58579 0
      vertex 5.84776 3.23463 0
    endloop
  endfacet
  facet normal 0 0 -1
    outer loop
      vertex 169.9 -5 0
      vertex 4.76537 2.15224 0
      vertex 5.41421 2.58579 0
    endloop
  endfacet
  facet normal 0 0 -1
    outer loop
      vertex -5 -5 0
      vertex 4.76537 2.15224 0
      vertex 169.9 -5 0
    endloop
  endfacet
  facet normal -0 0 -1
    outer loop
      vertex 2.15224 3.23463 0
      vertex -5 -5 0
      vertex 2 4 0
    endloop
  endfacet
  facet normal -0 0 -1
    outer loop
      vertex 2.58579 2.58579 0
      vertex -5 -5 0
      vertex 2.15224 3.23463 0
    endloop
  endfacet
  facet normal -0 0 -1
    outer loop
      vertex 3.23463 2.15224 0
      vertex -5 -5 0
      vertex 2.58579 2.58579 0
    endloop
  endfacet
  facet normal -0 0 -1
    outer loop
      vertex 4 2 0
      vertex -5 -5 0
      vertex 3.23463 2.15224 0
    endloop
  endfacet
  facet normal 0 0 -1
    outer loop
      vertex 4.76537 2.15224 0
      vertex -5 -5 0
      vertex 4 2 0
    endloop
  endfacet
  facet normal 0 0 -1
    outer loop
      vertex 162.748 4.76537 0
      vertex 169.9 10 0
      vertex 162.9 4 0
    endloop
  endfacet
  facet normal 0 0 -1
    outer loop
      vertex 162.314 5.41421 0
      vertex 169.9 10 0
      vertex 162.748 4.76537 0
    endloop
  endfacet
  facet normal 0 0 -1
    outer loop
      vertex 161.665 5.84776 0
      vertex 169.9 10 0
      vertex 162.314 5.41421 0
    endloop
  endfacet
  facet normal 0 0 -1
    outer loop
      vertex 160.9 6 0
      vertex 169.9 10 0
      vertex 161.665 5.84776 0
    endloop
  endfacet
  facet normal 0 0 -1
    outer loop
      vertex 160.135 5.84776 0
      vertex 169.9 10 0
      vertex 160.9 6 0
    endloop
  endfacet
  facet normal 0 0 -1
    outer loop
      vertex 6 4 0
      vertex 159.052 4.76537 0
      vertex 158.9 4 0
    endloop
  endfacet
  facet normal 0 0 -1
    outer loop
      vertex 5.84776 4.76537 0
      vertex 159.052 4.76537 0
      vertex 6 4 0
    endloop
  endfacet
  facet normal 0 0 -1
    outer loop
      vertex 159.052 4.76537 0
      vertex 5.84776 4.76537 0
      vertex 159.486 5.41421 0
    endloop
  endfacet
  facet normal 0 0 -1
    outer loop
      vertex 5.41421 5.41421 0
      vertex 159.486 5.41421 0
      vertex 5.84776 4.76537 0
    endloop
  endfacet
  facet normal 0 0 -1
    outer loop
      vertex 159.486 5.41421 0
      vertex 5.41421 5.41421 0
      vertex 160.135 5.84776 0
    endloop
  endfacet
  facet normal 0 0 -1
    outer loop
      vertex 4.76537 5.84776 0
      vertex 160.135 5.84776 0
      vertex 5.41421 5.41421 0
    endloop
  endfacet
  facet normal 0 0 -1
    outer loop
      vertex 160.135 5.84776 0
      vertex 4.76537 5.84776 0
      vertex 169.9 10 0
    endloop
  endfacet
  facet normal 0 0 -1
    outer loop
      vertex -5 10 0
      vertex 4.76537 5.84776 0
      vertex 4 6 0
    endloop
  endfacet
  facet normal 0 0 -1
    outer loop
      vertex -5 10 0
      vertex 2 4 0
      vertex -5 -5 0
    endloop
  endfacet
  facet normal 0 0 -1
    outer loop
      vertex 2 4 0
      vertex -5 10 0
      vertex 2.15224 4.76537 0
    endloop
  endfacet
  facet normal 0 0 -1
    outer loop
      vertex 4.76537 5.84776 0
      vertex -5 10 0
      vertex 169.9 10 0
    endloop
  endfacet
  facet normal 0 0 -1
    outer loop
      vertex 3.23463 5.84776 0
      vertex -5 10 0
      vertex 4 6 0
    endloop
  endfacet
  facet normal 0 0 -1
    outer loop
      vertex 2.58579 5.41421 0
      vertex -5 10 0
      vertex 3.23463 5.84776 0
    endloop
  endfacet
  facet normal 0 0 -1
    outer loop
      vertex 2.15224 4.76537 0
      vertex -5 10 0
      vertex 2.58579 5.41421 0
    endloop
  endfacet
  facet normal 0 -1 0
    outer loop
      vertex -5 -5 0
      vertex 169.9 -5 9
      vertex -5 -5 9
    endloop
  endfacet
  facet normal 0 -1 -0
    outer loop
      vertex 169.9 -5 9
      vertex -5 -5 0
      vertex 169.9 -5 0
    endloop
  endfacet
  facet normal 1 -0 0
    outer loop
      vertex -1 -1 6
      vertex -1 10 3
      vertex -1 10 6
    endloop
  endfacet
  facet normal 1 0 0
    outer loop
      vertex -1 10 3
      vertex -1 -1 6
      vertex -1 -1 3
    endloop
  endfacet
  facet normal 0 0 -1
    outer loop
      vertex 165.9 -1 6
      vertex 162.9 4 6
      vertex 165.9 10 6
    endloop
  endfacet
  facet normal 0 0 -1
    outer loop
      vertex 165.9 -1 6
      vertex 162.748 3.23463 6
      vertex 162.9 4 6
    endloop
  endfacet
  facet normal 0 0 -1
    outer loop
      vertex 165.9 -1 6
      vertex 162.314 2.58579 6
      vertex 162.748 3.23463 6
    endloop
  endfacet
  facet normal 0 0 -1
    outer loop
      vertex 165.9 -1 6
      vertex 161.665 2.15224 6
      vertex 162.314 2.58579 6
    endloop
  endfacet
  facet normal 0 0 -1
    outer loop
      vertex 165.9 -1 6
      vertex 160.9 2 6
      vertex 161.665 2.15224 6
    endloop
  endfacet
  facet normal 0 0 -1
    outer loop
      vertex 165.9 -1 6
      vertex 160.135 2.15224 6
      vertex 160.9 2 6
    endloop
  endfacet
  facet normal 0 0 -1
    outer loop
      vertex 159.052 3.23463 6
      vertex 6 4 6
      vertex 158.9 4 6
    endloop
  endfacet
  facet normal 0 0 -1
    outer loop
      vertex 5.84776 3.23463 6
      vertex 159.052 3.23463 6
      vertex 159.486 2.58579 6
    endloop
  endfacet
  facet normal 0 0 -1
    outer loop
      vertex 5.41421 2.58579 6
      vertex 159.486 2.58579 6
      vertex 160.135 2.15224 6
    endloop
  endfacet
  facet normal 0 0 -1
    outer loop
      vertex 4.76537 2.15224 6
      vertex 160.135 2.15224 6
      vertex 165.9 -1 6
    endloop
  endfacet
  facet normal 0 0 -1
    outer loop
      vertex 159.052 3.23463 6
      vertex 5.84776 3.23463 6
      vertex 6 4 6
    endloop
  endfacet
  facet normal 0 0 -1
    outer loop
      vertex 159.486 2.58579 6
      vertex 5.41421 2.58579 6
      vertex 5.84776 3.23463 6
    endloop
  endfacet
  facet normal 0 0 -1
    outer loop
      vertex 160.135 2.15224 6
      vertex 4.76537 2.15224 6
      vertex 5.41421 2.58579 6
    endloop
  endfacet
  facet normal 0 0 -1
    outer loop
      vertex -1 -1 6
      vertex 4.76537 2.15224 6
      vertex 165.9 -1 6
    endloop
  endfacet
  facet normal -0 0 -1
    outer loop
      vertex 2.15224 3.23463 6
      vertex -1 -1 6
      vertex 2 4 6
    endloop
  endfacet
  facet normal -0 0 -1
    outer loop
      vertex 2.58579 2.58579 6
      vertex -1 -1 6
      vertex 2.15224 3.23463 6
    endloop
  endfacet
  facet normal -0 0 -1
    outer loop
      vertex 3.23463 2.15224 6
      vertex -1 -1 6
      vertex 2.58579 2.58579 6
    endloop
  endfacet
  facet normal -0 0 -1
    outer loop
      vertex 4 2 6
      vertex -1 -1 6
      vertex 3.23463 2.15224 6
    endloop
  endfacet
  facet normal 0 0 -1
    outer loop
      vertex 4.76537 2.15224 6
      vertex -1 -1 6
      vertex 4 2 6
    endloop
  endfacet
  facet normal 0 0 -1
    outer loop
      vertex 162.748 4.76537 6
      vertex 165.9 10 6
      vertex 162.9 4 6
    endloop
  endfacet
  facet normal 0 0 -1
    outer loop
      vertex 162.314 5.41421 6
      vertex 165.9 10 6
      vertex 162.748 4.76537 6
    endloop
  endfacet
  facet normal 0 0 -1
    outer loop
      vertex 161.665 5.84776 6
      vertex 165.9 10 6
      vertex 162.314 5.41421 6
    endloop
  endfacet
  facet normal 0 0 -1
    outer loop
      vertex 160.9 6 6
      vertex 165.9 10 6
      vertex 161.665 5.84776 6
    endloop
  endfacet
  facet normal 0 0 -1
    outer loop
      vertex 160.135 5.84776 6
      vertex 165.9 10 6
      vertex 160.9 6 6
    endloop
  endfacet
  facet normal 0 0 -1
    outer loop
      vertex 159.486 5.41421 6
      vertex 165.9 10 6
      vertex 160.135 5.84776 6
    endloop
  endfacet
  facet normal 0 0 -1
    outer loop
      vertex 6 4 6
      vertex 159.052 4.76537 6
      vertex 158.9 4 6
    endloop
  endfacet
  facet normal 0 0 -1
    outer loop
      vertex 5.84776 4.76537 6
      vertex 159.052 4.76537 6
      vertex 6 4 6
    endloop
  endfacet
  facet normal 0 0 -1
    outer loop
      vertex 159.052 4.76537 6
      vertex 5.84776 4.76537 6
      vertex 159.486 5.41421 6
    endloop
  endfacet
  facet normal 0 0 -1
    outer loop
      vertex 5.41421 5.41421 6
      vertex 159.486 5.41421 6
      vertex 5.84776 4.76537 6
    endloop
  endfacet
  facet normal 0 0 -1
    outer loop
      vertex 159.486 5.41421 6
      vertex 5.41421 5.41421 6
      vertex 165.9 10 6
    endloop
  endfacet
  facet normal 0 0 -1
    outer loop
      vertex 4.76537 5.84776 6
      vertex 165.9 10 6
      vertex 5.41421 5.41421 6
    endloop
  endfacet
  facet normal 0 0 -1
    outer loop
      vertex -1 10 6
      vertex 4.76537 5.84776 6
      vertex 4 6 6
    endloop
  endfacet
  facet normal 0 0 -1
    outer loop
      vertex -1 10 6
      vertex 2 4 6
      vertex -1 -1 6
    endloop
  endfacet
  facet normal 0 0 -1
    outer loop
      vertex 4.76537 5.84776 6
      vertex -1 10 6
      vertex 165.9 10 6
    endloop
  endfacet
  facet normal 0 0 -1
    outer loop
      vertex 3.23463 5.84776 6
      vertex -1 10 6
      vertex 4 6 6
    endloop
  endfacet
  facet normal 0 0 -1
    outer loop
      vertex 2.58579 5.41421 6
      vertex -1 10 6
      vertex 3.23463 5.84776 6
    endloop
  endfacet
  facet normal 0 0 -1
    outer loop
      vertex 2.15224 4.76537 6
      vertex -1 10 6
      vertex 2.58579 5.41421 6
    endloop
  endfacet
  facet normal 0 0 -1
    outer loop
      vertex 2 4 6
      vertex -1 10 6
      vertex 2.15224 4.76537 6
    endloop
  endfacet
  facet normal -1 0 0
    outer loop
      vertex 165.9 -1 3
      vertex 165.9 10 6
      vertex 165.9 10 3
    endloop
  endfacet
  facet normal -1 -0 0
    outer loop
      vertex 165.9 10 6
      vertex 165.9 -1 3
      vertex 165.9 -1 6
    endloop
  endfacet
  facet normal 0 0 1
    outer loop
      vertex 165.9 10 3
      vertex 162.9 4 3
      vertex 165.9 -1 3
    endloop
  endfacet
  facet normal 0 0 1
    outer loop
      vertex 165.9 10 3
      vertex 162.748 4.76537 3
      vertex 162.9 4 3
    endloop
  endfacet
  facet normal 0 0 1
    outer loop
      vertex 165.9 10 3
      vertex 162.314 5.41421 3
      vertex 162.748 4.76537 3
    endloop
  endfacet
  facet normal 0 0 1
    outer loop
      vertex 165.9 10 3
      vertex 161.665 5.84776 3
      vertex 162.314 5.41421 3
    endloop
  endfacet
  facet normal 0 0 1
    outer loop
      vertex 165.9 10 3
      vertex 160.9 6 3
      vertex 161.665 5.84776 3
    endloop
  endfacet
  facet normal 0 0 1
    outer loop
      vertex 165.9 10 3
      vertex 160.135 5.84776 3
      vertex 160.9 6 3
    endloop
  endfacet
  facet normal 0 0 1
    outer loop
      vertex 165.9 10 3
      vertex 159.486 5.41421 3
      vertex 160.135 5.84776 3
    endloop
  endfacet
  facet normal 0 0 1
    outer loop
      vertex 159.052 4.76537 3
      vertex 6 4 3
      vertex 158.9 4 3
    endloop
  endfacet
  facet normal 0 0 1
    outer loop
      vertex 5.84776 4.76537 3
      vertex 159.052 4.76537 3
      vertex 159.486 5.41421 3
    endloop
  endfacet
  facet normal 0 0 1
    outer loop
      vertex 5.41421 5.41421 3
      vertex 159.486 5.41421 3
      vertex 165.9 10 3
    endloop
  endfacet
  facet normal 0 0 1
    outer loop
      vertex 159.052 4.76537 3
      vertex 5.84776 4.76537 3
      vertex 6 4 3
    endloop
  endfacet
  facet normal 0 0 1
    outer loop
      vertex 159.486 5.41421 3
      vertex 5.41421 5.41421 3
      vertex 5.84776 4.76537 3
    endloop
  endfacet
  facet normal 0 0 1
    outer loop
      vertex 165.9 10 3
      vertex 4.76537 5.84776 3
      vertex 5.41421 5.41421 3
    endloop
  endfacet
  facet normal -0 0 1
    outer loop
      vertex -1 10 3
      vertex 4.76537 5.84776 3
      vertex 165.9 10 3
    endloop
  endfacet
  facet normal 0 0 1
    outer loop
      vertex 2.15224 4.76537 3
      vertex -1 10 3
      vertex 2 4 3
    endloop
  endfacet
  facet normal 0 0 1
    outer loop
      vertex 2.58579 5.41421 3
      vertex -1 10 3
      vertex 2.15224 4.76537 3
    endloop
  endfacet
  facet normal 0 0 1
    outer loop
      vertex 3.23463 5.84776 3
      vertex -1 10 3
      vertex 2.58579 5.41421 3
    endloop
  endfacet
  facet normal 0 0 1
    outer loop
      vertex 4 6 3
      vertex -1 10 3
      vertex 3.23463 5.84776 3
    endloop
  endfacet
  facet normal 0 0 1
    outer loop
      vertex 4.76537 5.84776 3
      vertex -1 10 3
      vertex 4 6 3
    endloop
  endfacet
  facet normal -0 0 1
    outer loop
      vertex 162.748 3.23463 3
      vertex 165.9 -1 3
      vertex 162.9 4 3
    endloop
  endfacet
  facet normal -0 0 1
    outer loop
      vertex 162.314 2.58579 3
      vertex 165.9 -1 3
      vertex 162.748 3.23463 3
    endloop
  endfacet
  facet normal -0 0 1
    outer loop
      vertex 161.665 2.15224 3
      vertex 165.9 -1 3
      vertex 162.314 2.58579 3
    endloop
  endfacet
  facet normal -0 0 1
    outer loop
      vertex 160.9 2 3
      vertex 165.9 -1 3
      vertex 161.665 2.15224 3
    endloop
  endfacet
  facet normal 0 0 1
    outer loop
      vertex 160.135 2.15224 3
      vertex 165.9 -1 3
      vertex 160.9 2 3
    endloop
  endfacet
  facet normal -0 0 1
    outer loop
      vertex 6 4 3
      vertex 159.052 3.23463 3
      vertex 158.9 4 3
    endloop
  endfacet
  facet normal 0 0 1
    outer loop
      vertex 5.84776 3.23463 3
      vertex 159.052 3.23463 3
      vertex 6 4 3
    endloop
  endfacet
  facet normal 0 0 1
    outer loop
      vertex 159.052 3.23463 3
      vertex 5.84776 3.23463 3
      vertex 159.486 2.58579 3
    endloop
  endfacet
  facet normal 0 0 1
    outer loop
      vertex 5.41421 2.58579 3
      vertex 159.486 2.58579 3
      vertex 5.84776 3.23463 3
    endloop
  endfacet
  facet normal 0 0 1
    outer loop
      vertex 159.486 2.58579 3
      vertex 5.41421 2.58579 3
      vertex 160.135 2.15224 3
    endloop
  endfacet
  facet normal 0 0 1
    outer loop
      vertex 4.76537 2.15224 3
      vertex 160.135 2.15224 3
      vertex 5.41421 2.58579 3
    endloop
  endfacet
  facet normal 0 0 1
    outer loop
      vertex 160.135 2.15224 3
      vertex 4.76537 2.15224 3
      vertex 165.9 -1 3
    endloop
  endfacet
  facet normal 0 0 1
    outer loop
      vertex -1 -1 3
      vertex 4.76537 2.15224 3
      vertex 4 2 3
    endloop
  endfacet
  facet normal 0 0 1
    outer loop
      vertex -1 -1 3
      vertex 2 4 3
      vertex -1 10 3
    endloop
  endfacet
  facet normal 0 0 1
    outer loop
      vertex 4.76537 2.15224 3
      vertex -1 -1 3
      vertex 165.9 -1 3
    endloop
  endfacet
  facet normal 0 0 1
    outer loop
      vertex 3.23463 2.15224 3
      vertex -1 -1 3
      vertex 4 2 3
    endloop
  endfacet
  facet normal 0 0 1
    outer loop
      vertex 2.58579 2.58579 3
      vertex -1 -1 3
      vertex 3.23463 2.15224 3
    endloop
  endfacet
  facet normal 0 0 1
    outer loop
      vertex 2.15224 3.23463 3
      vertex -1 -1 3
      vertex 2.58579 2.58579 3
    endloop
  endfacet
  facet normal 0 0 1
    outer loop
      vertex 2 4 3
      vertex -1 -1 3
      vertex 2.15224 3.23463 3
    endloop
  endfacet
  facet normal 0 1 -0
    outer loop
      vertex 165.9 -1 3
      vertex -1 -1 6
      vertex 165.9 -1 6
    endloop
  endfacet
  facet normal 0 1 0
    outer loop
      vertex -1 -1 6
      vertex 165.9 -1 3
      vertex -1 -1 3
    endloop
  endfacet
  facet normal -0.980786 -0.195088 0
    outer loop
      vertex 6 4 0
      vertex 5.84776 4.76537 3
      vertex 5.84776 4.76537 0
    endloop
  endfacet
  facet normal -0.980786 -0.195088 0
    outer loop
      vertex 5.84776 4.76537 3
      vertex 6 4 0
      vertex 6 4 3
    endloop
  endfacet
  facet normal -0.980786 -0.195088 0
    outer loop
      vertex 6 4 6
      vertex 5.84776 4.76537 9
      vertex 5.84776 4.76537 6
    endloop
  endfacet
  facet normal -0.980786 -0.195088 0
    outer loop
      vertex 5.84776 4.76537 9
      vertex 6 4 6
      vertex 6 4 9
    endloop
  endfacet
  facet normal 0.195088 -0.980786 0
    outer loop
      vertex 3.23463 5.84776 0
      vertex 4 6 3
      vertex 3.23463 5.84776 3
    endloop
  endfacet
  facet normal 0.195088 -0.980786 0
    outer loop
      vertex 4 6 3
      vertex 3.23463 5.84776 0
      vertex 4 6 0
    endloop
  endfacet
  facet normal 0.195088 -0.980786 0
    outer loop
      vertex 3.23463 5.84776 6
      vertex 4 6 9
      vertex 3.23463 5.84776 9
    endloop
  endfacet
  facet normal 0.195088 -0.980786 0
    outer loop
      vertex 4 6 9
      vertex 3.23463 5.84776 6
      vertex 4 6 6
    endloop
  endfacet
  facet normal -0.555578 0.831464 0
    outer loop
      vertex 5.41421 2.58579 0
      vertex 4.76537 2.15224 3
      vertex 5.41421 2.58579 3
    endloop
  endfacet
  facet normal -0.555578 0.831464 0
    outer loop
      vertex 4.76537 2.15224 3
      vertex 5.41421 2.58579 0
      vertex 4.76537 2.15224 0
    endloop
  endfacet
  facet normal -0.555578 0.831464 0
    outer loop
      vertex 5.41421 2.58579 6
      vertex 4.76537 2.15224 9
      vertex 5.41421 2.58579 9
    endloop
  endfacet
  facet normal -0.555578 0.831464 0
    outer loop
      vertex 4.76537 2.15224 9
      vertex 5.41421 2.58579 6
      vertex 4.76537 2.15224 6
    endloop
  endfacet
  facet normal -0.555578 -0.831464 0
    outer loop
      vertex 4.76537 5.84776 0
      vertex 5.41421 5.41421 3
      vertex 4.76537 5.84776 3
    endloop
  endfacet
  facet normal -0.555578 -0.831464 -0
    outer loop
      vertex 5.41421 5.41421 3
      vertex 4.76537 5.84776 0
      vertex 5.41421 5.41421 0
    endloop
  endfacet
  facet normal -0.555578 -0.831464 0
    outer loop
      vertex 4.76537 5.84776 6
      vertex 5.41421 5.41421 9
      vertex 4.76537 5.84776 9
    endloop
  endfacet
  facet normal -0.555578 -0.831464 -0
    outer loop
      vertex 5.41421 5.41421 9
      vertex 4.76537 5.84776 6
      vertex 5.41421 5.41421 6
    endloop
  endfacet
  facet normal -0.831464 -0.555578 0
    outer loop
      vertex 5.84776 4.76537 0
      vertex 5.41421 5.41421 3
      vertex 5.41421 5.41421 0
    endloop
  endfacet
  facet normal -0.831464 -0.555578 0
    outer loop
      vertex 5.41421 5.41421 3
      vertex 5.84776 4.76537 0
      vertex 5.84776 4.76537 3
    endloop
  endfacet
  facet normal -0.831464 -0.555578 0
    outer loop
      vertex 5.84776 4.76537 6
      vertex 5.41421 5.41421 9
      vertex 5.41421 5.41421 6
    endloop
  endfacet
  facet normal -0.831464 -0.555578 0
    outer loop
      vertex 5.41421 5.41421 9
      vertex 5.84776 4.76537 6
      vertex 5.84776 4.76537 9
    endloop
  endfacet
  facet normal -0.195088 -0.980786 0
    outer loop
      vertex 4 6 0
      vertex 4.76537 5.84776 3
      vertex 4 6 3
    endloop
  endfacet
  facet normal -0.195088 -0.980786 -0
    outer loop
      vertex 4.76537 5.84776 3
      vertex 4 6 0
      vertex 4.76537 5.84776 0
    endloop
  endfacet
  facet normal -0.195088 -0.980786 0
    outer loop
      vertex 4 6 6
      vertex 4.76537 5.84776 9
      vertex 4 6 9
    endloop
  endfacet
  facet normal -0.195088 -0.980786 -0
    outer loop
      vertex 4.76537 5.84776 9
      vertex 4 6 6
      vertex 4.76537 5.84776 6
    endloop
  endfacet
  facet normal 0.831464 -0.555578 0
    outer loop
      vertex 2.15224 4.76537 3
      vertex 2.58579 5.41421 0
      vertex 2.58579 5.41421 3
    endloop
  endfacet
  facet normal 0.831464 -0.555578 0
    outer loop
      vertex 2.58579 5.41421 0
      vertex 2.15224 4.76537 3
      vertex 2.15224 4.76537 0
    endloop
  endfacet
  facet normal 0.831464 -0.555578 0
    outer loop
      vertex 2.15224 4.76537 9
      vertex 2.58579 5.41421 6
      vertex 2.58579 5.41421 9
    endloop
  endfacet
  facet normal 0.831464 -0.555578 0
    outer loop
      vertex 2.58579 5.41421 6
      vertex 2.15224 4.76537 9
      vertex 2.15224 4.76537 6
    endloop
  endfacet
  facet normal 0.980786 -0.195088 0
    outer loop
      vertex 2 4 3
      vertex 2.15224 4.76537 0
      vertex 2.15224 4.76537 3
    endloop
  endfacet
  facet normal 0.980786 -0.195088 0
    outer loop
      vertex 2.15224 4.76537 0
      vertex 2 4 3
      vertex 2 4 0
    endloop
  endfacet
  facet normal 0.980786 -0.195088 0
    outer loop
      vertex 2 4 9
      vertex 2.15224 4.76537 6
      vertex 2.15224 4.76537 9
    endloop
  endfacet
  facet normal 0.980786 -0.195088 0
    outer loop
      vertex 2.15224 4.76537 6
      vertex 2 4 9
      vertex 2 4 6
    endloop
  endfacet
  facet normal 0.555578 -0.831464 0
    outer loop
      vertex 2.58579 5.41421 0
      vertex 3.23463 5.84776 3
      vertex 2.58579 5.41421 3
    endloop
  endfacet
  facet normal 0.555578 -0.831464 0
    outer loop
      vertex 3.23463 5.84776 3
      vertex 2.58579 5.41421 0
      vertex 3.23463 5.84776 0
    endloop
  endfacet
  facet normal 0.555578 -0.831464 0
    outer loop
      vertex 2.58579 5.41421 6
      vertex 3.23463 5.84776 9
      vertex 2.58579 5.41421 9
    endloop
  endfacet
  facet normal 0.555578 -0.831464 0
    outer loop
      vertex 3.23463 5.84776 9
      vertex 2.58579 5.41421 6
      vertex 3.23463 5.84776 6
    endloop
  endfacet
  facet normal 0.195088 0.980786 -0
    outer loop
      vertex 4 2 0
      vertex 3.23463 2.15224 3
      vertex 4 2 3
    endloop
  endfacet
  facet normal 0.195088 0.980786 0
    outer loop
      vertex 3.23463 2.15224 3
      vertex 4 2 0
      vertex 3.23463 2.15224 0
    endloop
  endfacet
  facet normal 0.195088 0.980786 -0
    outer loop
      vertex 4 2 6
      vertex 3.23463 2.15224 9
      vertex 4 2 9
    endloop
  endfacet
  facet normal 0.195088 0.980786 0
    outer loop
      vertex 3.23463 2.15224 9
      vertex 4 2 6
      vertex 3.23463 2.15224 6
    endloop
  endfacet
  facet normal 0.831464 0.555578 0
    outer loop
      vertex 2.58579 2.58579 3
      vertex 2.15224 3.23463 0
      vertex 2.15224 3.23463 3
    endloop
  endfacet
  facet normal 0.831464 0.555578 0
    outer loop
      vertex 2.15224 3.23463 0
      vertex 2.58579 2.58579 3
      vertex 2.58579 2.58579 0
    endloop
  endfacet
  facet normal 0.831464 0.555578 0
    outer loop
      vertex 2.58579 2.58579 9
      vertex 2.15224 3.23463 6
      vertex 2.15224 3.23463 9
    endloop
  endfacet
  facet normal 0.831464 0.555578 0
    outer loop
      vertex 2.15224 3.23463 6
      vertex 2.58579 2.58579 9
      vertex 2.58579 2.58579 6
    endloop
  endfacet
  facet normal 0.980786 0.195088 0
    outer loop
      vertex 2.15224 3.23463 3
      vertex 2 4 0
      vertex 2 4 3
    endloop
  endfacet
  facet normal 0.980786 0.195088 0
    outer loop
      vertex 2 4 0
      vertex 2.15224 3.23463 3
      vertex 2.15224 3.23463 0
    endloop
  endfacet
  facet normal 0.980786 0.195088 0
    outer loop
      vertex 2.15224 3.23463 9
      vertex 2 4 6
      vertex 2 4 9
    endloop
  endfacet
  facet normal 0.980786 0.195088 0
    outer loop
      vertex 2 4 6
      vertex 2.15224 3.23463 9
      vertex 2.15224 3.23463 6
    endloop
  endfacet
  facet normal -0.831464 0.555578 0
    outer loop
      vertex 5.41421 2.58579 0
      vertex 5.84776 3.23463 3
      vertex 5.84776 3.23463 0
    endloop
  endfacet
  facet normal -0.831464 0.555578 0
    outer loop
      vertex 5.84776 3.23463 3
      vertex 5.41421 2.58579 0
      vertex 5.41421 2.58579 3
    endloop
  endfacet
  facet normal -0.831464 0.555578 0
    outer loop
      vertex 5.41421 2.58579 6
      vertex 5.84776 3.23463 9
      vertex 5.84776 3.23463 6
    endloop
  endfacet
  facet normal -0.831464 0.555578 0
    outer loop
      vertex 5.84776 3.23463 9
      vertex 5.41421 2.58579 6
      vertex 5.41421 2.58579 9
    endloop
  endfacet
  facet normal -0.980786 0.195088 0
    outer loop
      vertex 5.84776 3.23463 0
      vertex 6 4 3
      vertex 6 4 0
    endloop
  endfacet
  facet normal -0.980786 0.195088 0
    outer loop
      vertex 6 4 3
      vertex 5.84776 3.23463 0
      vertex 5.84776 3.23463 3
    endloop
  endfacet
  facet normal -0.980786 0.195088 0
    outer loop
      vertex 5.84776 3.23463 6
      vertex 6 4 9
      vertex 6 4 6
    endloop
  endfacet
  facet normal -0.980786 0.195088 0
    outer loop
      vertex 6 4 9
      vertex 5.84776 3.23463 6
      vertex 5.84776 3.23463 9
    endloop
  endfacet
  facet normal -0.195088 0.980786 0
    outer loop
      vertex 4.76537 2.15224 0
      vertex 4 2 3
      vertex 4.76537 2.15224 3
    endloop
  endfacet
  facet normal -0.195088 0.980786 0
    outer loop
      vertex 4 2 3
      vertex 4.76537 2.15224 0
      vertex 4 2 0
    endloop
  endfacet
  facet normal -0.195088 0.980786 0
    outer loop
      vertex 4.76537 2.15224 6
      vertex 4 2 9
      vertex 4.76537 2.15224 9
    endloop
  endfacet
  facet normal -0.195088 0.980786 0
    outer loop
      vertex 4 2 9
      vertex 4.76537 2.15224 6
      vertex 4 2 6
    endloop
  endfacet
  facet normal 0.555578 0.831464 -0
    outer loop
      vertex 3.23463 2.15224 0
      vertex 2.58579 2.58579 3
      vertex 3.23463 2.15224 3
    endloop
  endfacet
  facet normal 0.555578 0.831464 0
    outer loop
      vertex 2.58579 2.58579 3
      vertex 3.23463 2.15224 0
      vertex 2.58579 2.58579 0
    endloop
  endfacet
  facet normal 0.555578 0.831464 -0
    outer loop
      vertex 3.23463 2.15224 6
      vertex 2.58579 2.58579 9
      vertex 3.23463 2.15224 9
    endloop
  endfacet
  facet normal 0.555578 0.831464 0
    outer loop
      vertex 2.58579 2.58579 9
      vertex 3.23463 2.15224 6
      vertex 2.58579 2.58579 6
    endloop
  endfacet
  facet normal -0.980844 -0.194793 0
    outer loop
      vertex 162.9 4 0
      vertex 162.748 4.76537 3
      vertex 162.748 4.76537 0
    endloop
  endfacet
  facet normal -0.980844 -0.194793 0
    outer loop
      vertex 162.748 4.76537 3
      vertex 162.9 4 0
      vertex 162.9 4 3
    endloop
  endfacet
  facet normal -0.980844 -0.194793 0
    outer loop
      vertex 162.9 4 6
      vertex 162.748 4.76537 9
      vertex 162.748 4.76537 6
    endloop
  endfacet
  facet normal -0.980844 -0.194793 0
    outer loop
      vertex 162.748 4.76537 9
      vertex 162.9 4 6
      vertex 162.9 4 9
    endloop
  endfacet
  facet normal 0.195179 -0.980768 0
    outer loop
      vertex 160.135 5.84776 0
      vertex 160.9 6 3
      vertex 160.135 5.84776 3
    endloop
  endfacet
  facet normal 0.195179 -0.980768 0
    outer loop
      vertex 160.9 6 3
      vertex 160.135 5.84776 0
      vertex 160.9 6 0
    endloop
  endfacet
  facet normal 0.195179 -0.980768 0
    outer loop
      vertex 160.135 5.84776 6
      vertex 160.9 6 9
      vertex 160.135 5.84776 9
    endloop
  endfacet
  facet normal 0.195179 -0.980768 0
    outer loop
      vertex 160.9 6 9
      vertex 160.135 5.84776 6
      vertex 160.9 6 6
    endloop
  endfacet
  facet normal -0.555483 -0.831528 0
    outer loop
      vertex 161.665 5.84776 0
      vertex 162.314 5.41421 3
      vertex 161.665 5.84776 3
    endloop
  endfacet
  facet normal -0.555483 -0.831528 -0
    outer loop
      vertex 162.314 5.41421 3
      vertex 161.665 5.84776 0
      vertex 162.314 5.41421 0
    endloop
  endfacet
  facet normal -0.555483 -0.831528 0
    outer loop
      vertex 161.665 5.84776 6
      vertex 162.314 5.41421 9
      vertex 161.665 5.84776 9
    endloop
  endfacet
  facet normal -0.555483 -0.831528 -0
    outer loop
      vertex 162.314 5.41421 9
      vertex 161.665 5.84776 6
      vertex 162.314 5.41421 6
    endloop
  endfacet
  facet normal -0.831198 -0.555977 0
    outer loop
      vertex 162.748 4.76537 0
      vertex 162.314 5.41421 3
      vertex 162.314 5.41421 0
    endloop
  endfacet
  facet normal -0.831198 -0.555977 0
    outer loop
      vertex 162.314 5.41421 3
      vertex 162.748 4.76537 0
      vertex 162.748 4.76537 3
    endloop
  endfacet
  facet normal -0.831198 -0.555977 0
    outer loop
      vertex 162.748 4.76537 6
      vertex 162.314 5.41421 9
      vertex 162.314 5.41421 6
    endloop
  endfacet
  facet normal -0.831198 -0.555977 0
    outer loop
      vertex 162.314 5.41421 9
      vertex 162.748 4.76537 6
      vertex 162.748 4.76537 9
    endloop
  endfacet
  facet normal -0.195179 -0.980768 0
    outer loop
      vertex 160.9 6 0
      vertex 161.665 5.84776 3
      vertex 160.9 6 3
    endloop
  endfacet
  facet normal -0.195179 -0.980768 -0
    outer loop
      vertex 161.665 5.84776 3
      vertex 160.9 6 0
      vertex 161.665 5.84776 0
    endloop
  endfacet
  facet normal -0.195179 -0.980768 0
    outer loop
      vertex 160.9 6 6
      vertex 161.665 5.84776 9
      vertex 160.9 6 9
    endloop
  endfacet
  facet normal -0.195179 -0.980768 -0
    outer loop
      vertex 161.665 5.84776 9
      vertex 160.9 6 6
      vertex 161.665 5.84776 6
    endloop
  endfacet
  facet normal 0.831198 -0.555977 0
    outer loop
      vertex 159.052 4.76537 3
      vertex 159.486 5.41421 0
      vertex 159.486 5.41421 3
    endloop
  endfacet
  facet normal 0.831198 -0.555977 0
    outer loop
      vertex 159.486 5.41421 0
      vertex 159.052 4.76537 3
      vertex 159.052 4.76537 0
    endloop
  endfacet
  facet normal 0.831198 -0.555977 0
    outer loop
      vertex 159.052 4.76537 9
      vertex 159.486 5.41421 6
      vertex 159.486 5.41421 9
    endloop
  endfacet
  facet normal 0.831198 -0.555977 0
    outer loop
      vertex 159.486 5.41421 6
      vertex 159.052 4.76537 9
      vertex 159.052 4.76537 6
    endloop
  endfacet
  facet normal 0.980844 -0.194793 0
    outer loop
      vertex 158.9 4 3
      vertex 159.052 4.76537 0
      vertex 159.052 4.76537 3
    endloop
  endfacet
  facet normal 0.980844 -0.194793 0
    outer loop
      vertex 159.052 4.76537 0
      vertex 158.9 4 3
      vertex 158.9 4 0
    endloop
  endfacet
  facet normal 0.980844 -0.194793 0
    outer loop
      vertex 158.9 4 9
      vertex 159.052 4.76537 6
      vertex 159.052 4.76537 9
    endloop
  endfacet
  facet normal 0.980844 -0.194793 0
    outer loop
      vertex 159.052 4.76537 6
      vertex 158.9 4 9
      vertex 158.9 4 6
    endloop
  endfacet
  facet normal 0.555483 -0.831528 0
    outer loop
      vertex 159.486 5.41421 0
      vertex 160.135 5.84776 3
      vertex 159.486 5.41421 3
    endloop
  endfacet
  facet normal 0.555483 -0.831528 0
    outer loop
      vertex 160.135 5.84776 3
      vertex 159.486 5.41421 0
      vertex 160.135 5.84776 0
    endloop
  endfacet
  facet normal 0.555483 -0.831528 0
    outer loop
      vertex 159.486 5.41421 6
      vertex 160.135 5.84776 9
      vertex 159.486 5.41421 9
    endloop
  endfacet
  facet normal 0.555483 -0.831528 0
    outer loop
      vertex 160.135 5.84776 9
      vertex 159.486 5.41421 6
      vertex 160.135 5.84776 6
    endloop
  endfacet
  facet normal -0.980844 0.194793 0
    outer loop
      vertex 162.748 3.23463 0
      vertex 162.9 4 3
      vertex 162.9 4 0
    endloop
  endfacet
  facet normal -0.980844 0.194793 0
    outer loop
      vertex 162.9 4 3
      vertex 162.748 3.23463 0
      vertex 162.748 3.23463 3
    endloop
  endfacet
  facet normal -0.980844 0.194793 0
    outer loop
      vertex 162.748 3.23463 6
      vertex 162.9 4 9
      vertex 162.9 4 6
    endloop
  endfacet
  facet normal -0.980844 0.194793 0
    outer loop
      vertex 162.9 4 9
      vertex 162.748 3.23463 6
      vertex 162.748 3.23463 9
    endloop
  endfacet
  facet normal -0.555483 0.831528 0
    outer loop
      vertex 162.314 2.58579 0
      vertex 161.665 2.15224 3
      vertex 162.314 2.58579 3
    endloop
  endfacet
  facet normal -0.555483 0.831528 0
    outer loop
      vertex 161.665 2.15224 3
      vertex 162.314 2.58579 0
      vertex 161.665 2.15224 0
    endloop
  endfacet
  facet normal -0.555483 0.831528 0
    outer loop
      vertex 162.314 2.58579 6
      vertex 161.665 2.15224 9
      vertex 162.314 2.58579 9
    endloop
  endfacet
  facet normal -0.555483 0.831528 0
    outer loop
      vertex 161.665 2.15224 9
      vertex 162.314 2.58579 6
      vertex 161.665 2.15224 6
    endloop
  endfacet
  facet normal 0.195179 0.980768 -0
    outer loop
      vertex 160.9 2 0
      vertex 160.135 2.15224 3
      vertex 160.9 2 3
    endloop
  endfacet
  facet normal 0.195179 0.980768 0
    outer loop
      vertex 160.135 2.15224 3
      vertex 160.9 2 0
      vertex 160.135 2.15224 0
    endloop
  endfacet
  facet normal 0.195179 0.980768 -0
    outer loop
      vertex 160.9 2 6
      vertex 160.135 2.15224 9
      vertex 160.9 2 9
    endloop
  endfacet
  facet normal 0.195179 0.980768 0
    outer loop
      vertex 160.135 2.15224 9
      vertex 160.9 2 6
      vertex 160.135 2.15224 6
    endloop
  endfacet
  facet normal 0.831198 0.555977 0
    outer loop
      vertex 159.486 2.58579 3
      vertex 159.052 3.23463 0
      vertex 159.052 3.23463 3
    endloop
  endfacet
  facet normal 0.831198 0.555977 0
    outer loop
      vertex 159.052 3.23463 0
      vertex 159.486 2.58579 3
      vertex 159.486 2.58579 0
    endloop
  endfacet
  facet normal 0.831198 0.555977 0
    outer loop
      vertex 159.486 2.58579 9
      vertex 159.052 3.23463 6
      vertex 159.052 3.23463 9
    endloop
  endfacet
  facet normal 0.831198 0.555977 0
    outer loop
      vertex 159.052 3.23463 6
      vertex 159.486 2.58579 9
      vertex 159.486 2.58579 6
    endloop
  endfacet
  facet normal 0.980844 0.194793 0
    outer loop
      vertex 159.052 3.23463 3
      vertex 158.9 4 0
      vertex 158.9 4 3
    endloop
  endfacet
  facet normal 0.980844 0.194793 0
    outer loop
      vertex 158.9 4 0
      vertex 159.052 3.23463 3
      vertex 159.052 3.23463 0
    endloop
  endfacet
  facet normal 0.980844 0.194793 0
    outer loop
      vertex 159.052 3.23463 9
      vertex 158.9 4 6
      vertex 158.9 4 9
    endloop
  endfacet
  facet normal 0.980844 0.194793 0
    outer loop
      vertex 158.9 4 6
      vertex 159.052 3.23463 9
      vertex 159.052 3.23463 6
    endloop
  endfacet
  facet normal -0.831198 0.555977 0
    outer loop
      vertex 162.314 2.58579 0
      vertex 162.748 3.23463 3
      vertex 162.748 3.23463 0
    endloop
  endfacet
  facet normal -0.831198 0.555977 0
    outer loop
      vertex 162.748 3.23463 3
      vertex 162.314 2.58579 0
      vertex 162.314 2.58579 3
    endloop
  endfacet
  facet normal -0.831198 0.555977 0
    outer loop
      vertex 162.314 2.58579 6
      vertex 162.748 3.23463 9
      vertex 162.748 3.23463 6
    endloop
  endfacet
  facet normal -0.831198 0.555977 0
    outer loop
      vertex 162.748 3.23463 9
      vertex 162.314 2.58579 6
      vertex 162.314 2.58579 9
    endloop
  endfacet
  facet normal -0.195179 0.980768 0
    outer loop
      vertex 161.665 2.15224 0
      vertex 160.9 2 3
      vertex 161.665 2.15224 3
    endloop
  endfacet
  facet normal -0.195179 0.980768 0
    outer loop
      vertex 160.9 2 3
      vertex 161.665 2.15224 0
      vertex 160.9 2 0
    endloop
  endfacet
  facet normal -0.195179 0.980768 0
    outer loop
      vertex 161.665 2.15224 6
      vertex 160.9 2 9
      vertex 161.665 2.15224 9
    endloop
  endfacet
  facet normal -0.195179 0.980768 0
    outer loop
      vertex 160.9 2 9
      vertex 161.665 2.15224 6
      vertex 160.9 2 6
    endloop
  endfacet
  facet normal 0.555483 0.831528 -0
    outer loop
      vertex 160.135 2.15224 0
      vertex 159.486 2.58579 3
      vertex 160.135 2.15224 3
    endloop
  endfacet
  facet normal 0.555483 0.831528 0
    outer loop
      vertex 159.486 2.58579 3
      vertex 160.135 2.15224 0
      vertex 159.486 2.58579 0
    endloop
  endfacet
  facet normal 0.555483 0.831528 -0
    outer loop
      vertex 160.135 2.15224 6
      vertex 159.486 2.58579 9
      vertex 160.135 2.15224 9
    endloop
  endfacet
  facet normal 0.555483 0.831528 0
    outer loop
      vertex 159.486 2.58579 9
      vertex 160.135 2.15224 6
      vertex 159.486 2.58579 6
    endloop
  endfacet
endsolid OpenSCAD_Model
